# xmcd
#
# Track frame offsets:
#	150
#	13650
#	27900
#	40500
#	54825
#	68775
#	78225
#	98175
#	111000
#	125400
#	135075
#	146400
#	161925
#	180750
#
# Disc length: 2576 seconds
#
# Revision: 1
# Processed by: cddbd v1.5.2PL0 Copyright (c) Steve Scherf et al.
# Submitted via: audiograbber 1.83.01
#
DISCID=a30a0e0e
DTITLE=Margo O'Donnell - The Highway Of My Life
DYEAR=1900
DGENRE=
TTITLE0=Better Part Of Life
TTITLE1=Bet Your Sweet Life
TTITLE2=Silver Sandals
TTITLE3=Highway Of My Life
TTITLE4=Letters To Heaven
TTITLE5=Mine
TTITLE6=Nobody's Home
TTITLE7=Mama Say A Special Prayer For Me
TTITLE8=Wrong Direction Home
TTITLE9=It Ain't Fair
TTITLE10=Let Me Give Her The Flowers
TTITLE11=Shade Of The Family Tree
TTITLE12=The Third Man
TTITLE13=God's Coloring Book
EXTD=
EXTT0=
EXTT1=
EXTT2=
EXTT3=
EXTT4=
EXTT5=
EXTT6=
EXTT7=
EXTT8=
EXTT9=
EXTT10=
EXTT11=
EXTT12=
EXTT13=
PLAYORDER=
